<svg width="117" height="117" viewBox="0 0 117 117" fill="none" xmlns="http://www.w3.org/2000/svg">
<path d="M58.5 0C26.1931 0 0 26.3512 0 58.8532C0 88.2238 21.3897 112.568 49.3614 117V75.8693H34.5009V58.8532H49.3614V45.8865C49.3614 31.1247 58.0963 22.9845 71.4532 22.9845C77.8537 22.9845 84.5585 24.1322 84.5585 24.1322V38.6056H77.1634C69.9086 38.6056 67.6386 43.1496 67.6386 47.8053V58.8414H83.8506L81.2588 75.8575H67.6386V116.988C95.6103 112.58 117 88.2297 117 58.8532C117 26.3512 90.8069 0 58.5 0V0Z" fill="white"/>
</svg>
