<svg width="99" height="81" viewBox="0 0 99 81" fill="none" xmlns="http://www.w3.org/2000/svg">
<path d="M88.3469 20.6518C88.4114 21.5195 88.4114 22.3823 88.4114 23.245C88.4114 49.6481 68.3153 80.0725 31.5889 80.0725C20.274 80.0725 9.76229 76.795 0.916626 71.1029C2.52313 71.2863 4.07013 71.3508 5.74108 71.3508C14.7305 71.3725 23.4654 68.3665 30.5377 62.8175C26.3698 62.742 22.3296 61.3669 18.981 58.8842C15.6325 56.4015 13.1428 52.935 11.8597 48.9688C13.0943 49.1523 14.3339 49.2763 15.633 49.2763C17.4229 49.2763 19.2228 49.0284 20.8938 48.597C16.3706 47.6837 12.3033 45.232 9.38357 41.6587C6.46383 38.0854 4.87185 33.6111 4.87833 28.9967V28.7488C7.54096 30.2313 10.63 31.1585 13.9025 31.2825C11.161 29.4607 8.91303 26.9887 7.35919 24.0869C5.80534 21.1851 4.99393 17.9438 4.99733 14.6522C4.99733 10.9434 5.98404 7.54197 7.7145 4.57689C12.733 10.7501 18.9922 15.8004 26.0868 19.4006C33.1813 23.0008 40.953 25.0707 48.8984 25.4763C48.591 23.9888 48.4026 22.4467 48.4026 20.8997C48.4013 18.2766 48.917 15.6789 49.9202 13.2552C50.9235 10.8314 52.3945 8.62921 54.2494 6.77436C56.1042 4.91951 58.3065 3.44842 60.7302 2.44519C63.1539 1.44196 65.7516 0.92625 68.3748 0.927554C74.1264 0.927554 79.3178 3.3373 82.9671 7.23455C87.4384 6.3699 91.7262 4.73765 95.6406 2.41009C94.1502 7.02539 91.0282 10.9389 86.8594 13.4176C90.825 12.9653 94.7007 11.9224 98.3578 10.3236C95.6264 14.3056 92.2418 17.7975 88.3469 20.6518V20.6518Z" fill="white"/>
</svg>
