<svg width="118" height="115" viewBox="0 0 118 115" fill="none" xmlns="http://www.w3.org/2000/svg">
<path fill-rule="evenodd" clip-rule="evenodd" d="M59 0C26.4122 0 0 26.3922 0 58.9555C0 84.999 16.9002 107.1 40.3488 114.902C43.3006 115.434 44.3654 113.62 44.3654 112.059C44.3654 110.658 44.318 106.946 44.3003 102.034C27.8851 105.593 24.4187 94.1254 24.4187 94.1254C21.7449 87.3161 17.8704 85.5014 17.8704 85.5014C12.5169 81.8426 18.2785 81.9253 18.2785 81.9253C24.2057 82.3391 27.3113 88.0017 27.3113 88.0017C32.576 97.01 41.1296 94.4092 44.4777 92.9019C45.016 89.0893 46.554 86.4885 48.234 85.0167C35.1374 83.5331 21.3664 78.4733 21.3664 55.8759C21.3664 49.4507 23.6674 44.1782 27.4237 40.0642C26.8262 38.5687 24.7854 32.5692 28.0093 24.4594C28.0093 24.4594 32.9605 22.8693 44.2293 30.4944C49.042 29.1862 54.0065 28.5184 58.9941 28.5084C63.9818 28.5164 68.9465 29.1843 73.7589 30.4944C85.0336 22.8634 89.9788 24.4594 89.9788 24.4594C93.2027 32.5692 91.1797 38.5687 90.5645 40.0642C94.3503 44.1782 96.6218 49.4448 96.6218 55.8759C96.6218 78.5324 82.839 83.5094 69.695 84.9694C71.795 86.79 73.6879 90.3838 73.6879 95.881C73.6879 103.766 73.6169 110.126 73.6169 112.059C73.6169 113.637 74.6698 115.47 77.6808 114.89C101.118 107.076 118 84.9931 118 58.9555C118 26.3922 91.5878 0 59 0Z" fill="white"/>
</svg>
