<svg width="90" height="90" viewBox="0 0 90 90" fill="none" xmlns="http://www.w3.org/2000/svg">
<path d="M85 0H5C3.67392 0 2.40215 0.526784 1.46447 1.46447C0.526784 2.40215 0 3.67392 0 5V85C0 86.3261 0.526784 87.5979 1.46447 88.5355C2.40215 89.4732 3.67392 90 5 90H85C86.3261 90 87.5979 89.4732 88.5355 88.5355C89.4732 87.5979 90 86.3261 90 85V5C90 3.67392 89.4732 2.40215 88.5355 1.46447C87.5979 0.526784 86.3261 0 85 0ZM26.695 76.685H13.335V33.735H26.695V76.685ZM20.015 27.87C17.9622 27.87 15.9935 27.0545 14.542 25.603C13.0905 24.1515 12.275 22.1828 12.275 20.13C12.275 18.0772 13.0905 16.1085 14.542 14.657C15.9935 13.2055 17.9622 12.39 20.015 12.39C22.0678 12.39 24.0365 13.2055 25.488 14.657C26.9395 16.1085 27.755 18.0772 27.755 20.13C27.755 22.1828 26.9395 24.1515 25.488 25.603C24.0365 27.0545 22.0678 27.87 20.015 27.87ZM76.69 76.685H63.345V55.8C63.345 50.82 63.255 44.415 56.405 44.415C49.455 44.415 48.4 49.845 48.4 55.45V76.69H35.065V33.74H47.865V39.61H48.05C49.825 36.235 54.185 32.675 60.67 32.675C74.19 32.675 76.685 41.565 76.685 53.135L76.69 76.685Z" fill="white"/>
</svg>
