<svg  width="1089" height="793" viewBox="0 0 1089 793" fill="none" xmlns="http://www.w3.org/2000/svg">
<rect x="248" width="597" height="289" fill="#C00D0E"/>
<rect x="248" y="358" width="597" height="435" fill="#C00D0E"/>
<path d="M725 133.5C725 103.398 711.04 74.5288 686.192 53.2434C661.343 31.958 627.641 20 592.5 20C557.359 20 523.657 31.958 498.808 53.2434C473.96 74.5287 460 103.398 460 133.5L507.52 133.5C507.52 114.194 516.474 95.6785 532.41 82.027C548.347 68.3755 569.962 60.7062 592.5 60.7062C615.038 60.7062 636.653 68.3755 652.59 82.027C668.526 95.6785 677.48 114.194 677.48 133.5H725Z" fill="#870707"/>
<path d="M461.119 159.494C460.822 189.595 474.497 218.6 499.134 240.13C523.772 261.659 557.354 273.949 592.494 274.295C627.633 274.642 661.451 263.016 686.508 241.977C711.566 220.938 725.809 192.207 726.106 162.107L678.588 161.638C678.398 180.944 669.262 199.37 653.192 212.864C637.121 226.357 615.432 233.813 592.895 233.591C570.358 233.369 548.82 225.487 533.018 211.679C517.217 197.871 508.447 179.268 508.637 159.963L461.119 159.494Z" fill="#870707"/>
<circle cx="593" cy="144" r="57" fill="#870707"/>
<ellipse cx="593" cy="144.5" rx="46" ry="44.5" fill="#51AE60"/>
<rect x="239" y="18" width="9" height="271" fill="#680C0C"/>
<rect x="9.75" y="289.75" width="834.5" height="67.5" fill="#950909" stroke="black" stroke-width="1.5"/>
<rect x="10" y="291" width="45" height="66" fill="#A80809" stroke="black" stroke-width="2"/>
<rect x="319" y="291" width="45" height="66" fill="#A80809" stroke="black" stroke-width="2"/>
<rect x="776" y="291" width="45" height="66" fill="#C00D0E" stroke="black" stroke-width="2"/>
<path d="M2.0037 359.033L246.943 358.969L247.056 791.936L110.002 791.937C50.3544 791.937 2.00036 743.583 2.00088 683.936L2.0037 359.033Z" fill="#8B0100" fill-opacity="0.97" stroke="black" stroke-width="2"/>
<rect x="9" y="400" width="30" height="24" fill="#51AE60"/>
<rect x="9" y="443" width="30" height="24" fill="#51AE60"/>
<circle cx="127.5" cy="697.5" r="48.5" fill="#70DBF3"/>
<rect x="108" y="665" width="39" height="17" rx="8.5" fill="#9FF0FA"/>
<rect x="281" y="391" width="532" height="370" rx="30" fill="#424242"/>
<rect x="307" y="415" width="480" height="282" fill="white" stroke="#B0B0B0" stroke-width="6"/>
<rect x="438" y="717" width="218" height="29" rx="14.5" fill="black"/>
<rect x="464" y="725" width="72" height="14" rx="7" fill="white"/>
<rect x="557" y="725" width="72" height="14" rx="7" fill="white"/>
<path d="M845 568H975.948C1038.38 568 1089 618.615 1089 681.052V681.052C1089 742.879 1038.88 793 977.052 793H845V568Z" fill="#870707"/>
<path d="M845 589H971.061C1020.73 589 1061 629.267 1061 678.939V678.939C1061 728.126 1021.13 768 971.939 768H845V589Z" fill="#424242"/>
<rect x="968" y="617" width="122" height="32" transform="rotate(90 968 617)" fill="#DDDCDC"/>
<rect x="884" y="651.238" width="129" height="50" fill="#DDDCDC"/>
<rect x="974" y="612" width="129" height="50" transform="rotate(90 974 612)" fill="#DDDCDC"/>
<circle cx="948" cy="674" r="16" fill="#C4C4C4"/>
<path d="M947.5 617L958.325 635.75H936.675L947.5 617Z" fill="#C4C4C4"/>
<path d="M948.785 739.141L937.746 720.516L959.395 720.269L948.785 739.141Z" fill="#C4C4C4"/>
<path d="M889.142 675.642L907.892 664.817L907.892 686.467L889.142 675.642Z" fill="#C4C4C4"/>
<path d="M1008 675.5L989.25 686.325L989.25 664.675L1008 675.5Z" fill="#C4C4C4"/>
<rect x="836" y="578" width="9" height="215" fill="#870707"/>
<rect x="246" y="781" width="595" height="12" fill="#600405"/>
<path d="M109.364 791.977C95.067 794.098 80.4738 792.911 66.7074 788.507C52.941 784.103 40.3682 776.6 29.9562 766.575C19.5441 756.551 11.5704 744.271 6.64833 730.681C1.72627 717.092 -0.0129514 702.554 1.56448 688.187L10.2964 689.145C8.86563 702.177 10.4432 715.363 14.9077 727.69C19.3722 740.016 26.6048 751.154 36.0489 760.247C45.4931 769.34 56.8972 776.146 69.3839 780.14C81.8706 784.135 95.1072 785.211 108.075 783.288L109.364 791.977Z" fill="#600405"/>
<rect x="107" y="783" width="139" height="10" fill="#600405"/>
<rect x="1" y="288" width="8" height="402" fill="#600405"/>
</svg>
